{
	"patcher" : 	{
		"fileversion" : 1,
		"rect" : [ 437.0, 149.0, 525.0, 340.0 ],
		"bglocked" : 0,
		"defrect" : [ 437.0, 149.0, 525.0, 340.0 ],
		"openrect" : [ 0.0, 0.0, 0.0, 0.0 ],
		"openinpresentation" : 0,
		"default_fontsize" : 12.0,
		"default_fontface" : 0,
		"default_fontname" : "Arial",
		"gridonopen" : 0,
		"gridsize" : [ 15.0, 15.0 ],
		"gridsnaponopen" : 0,
		"toolbarvisible" : 1,
		"boxanimatetime" : 200,
		"imprint" : 0,
		"enablehscroll" : 1,
		"enablevscroll" : 1,
		"devicewidth" : 0.0,
		"boxes" : [ 			{
				"box" : 				{
					"maxclass" : "inlet",
					"numinlets" : 0,
					"patching_rect" : [ 484.0, 13.0, 25.0, 25.0 ],
					"numoutlets" : 1,
					"id" : "obj-1",
					"outlettype" : [ "" ],
					"comment" : "Buffer Input"
				}

			}
, 			{
				"box" : 				{
					"maxclass" : "newobj",
					"text" : "partconvolve~ 8824000 16384 @offset 8192 @chan #1 ",
					"fontsize" : 12.0,
					"numinlets" : 1,
					"patching_rect" : [ 18.0, 56.0, 309.0, 20.0 ],
					"numoutlets" : 1,
					"id" : "obj-2",
					"fontname" : "Arial",
					"outlettype" : [ "signal" ]
				}

			}
, 			{
				"box" : 				{
					"maxclass" : "newobj",
					"text" : "+~",
					"fontsize" : 12.0,
					"numinlets" : 2,
					"patching_rect" : [ 19.0, 256.0, 49.0, 20.0 ],
					"numoutlets" : 1,
					"id" : "obj-3",
					"fontname" : "Arial",
					"outlettype" : [ "signal" ]
				}

			}
, 			{
				"box" : 				{
					"maxclass" : "outlet",
					"numinlets" : 1,
					"patching_rect" : [ 20.0, 286.0, 25.0, 25.0 ],
					"numoutlets" : 0,
					"id" : "obj-4",
					"comment" : "Audio Out"
				}

			}
, 			{
				"box" : 				{
					"maxclass" : "newobj",
					"text" : "+~",
					"fontsize" : 12.0,
					"numinlets" : 2,
					"patching_rect" : [ 49.0, 229.0, 71.0, 20.0 ],
					"numoutlets" : 1,
					"id" : "obj-5",
					"fontname" : "Arial",
					"outlettype" : [ "signal" ]
				}

			}
, 			{
				"box" : 				{
					"maxclass" : "newobj",
					"text" : "+~",
					"fontsize" : 12.0,
					"numinlets" : 2,
					"patching_rect" : [ 49.0, 199.0, 49.0, 20.0 ],
					"numoutlets" : 1,
					"id" : "obj-6",
					"fontname" : "Arial",
					"outlettype" : [ "signal" ]
				}

			}
, 			{
				"box" : 				{
					"maxclass" : "newobj",
					"text" : "+~",
					"fontsize" : 12.0,
					"numinlets" : 2,
					"patching_rect" : [ 102.0, 199.0, 49.0, 20.0 ],
					"numoutlets" : 1,
					"id" : "obj-7",
					"fontname" : "Arial",
					"outlettype" : [ "signal" ]
				}

			}
, 			{
				"box" : 				{
					"maxclass" : "inlet",
					"numinlets" : 0,
					"patching_rect" : [ 446.0, 13.0, 25.0, 25.0 ],
					"numoutlets" : 1,
					"id" : "obj-8",
					"outlettype" : [ "" ],
					"comment" : "Audio In"
				}

			}
, 			{
				"box" : 				{
					"maxclass" : "newobj",
					"text" : "partconvolve~ 384 256 @offset 128 @length 384 @chan #1",
					"fontsize" : 12.0,
					"numinlets" : 1,
					"patching_rect" : [ 102.0, 144.0, 330.0, 20.0 ],
					"numoutlets" : 1,
					"id" : "obj-9",
					"fontname" : "Arial",
					"outlettype" : [ "signal" ]
				}

			}
, 			{
				"box" : 				{
					"maxclass" : "newobj",
					"text" : "partconvolve~ 1536 1024 @offset 512 @length 1536 @chan #1",
					"fontsize" : 12.0,
					"numinlets" : 1,
					"patching_rect" : [ 79.0, 116.0, 350.0, 20.0 ],
					"numoutlets" : 1,
					"id" : "obj-10",
					"fontname" : "Arial",
					"outlettype" : [ "signal" ]
				}

			}
, 			{
				"box" : 				{
					"maxclass" : "newobj",
					"text" : "timeconvolve~ @length 128 @chan #1",
					"fontsize" : 12.0,
					"numinlets" : 1,
					"patching_rect" : [ 132.0, 171.0, 217.0, 20.0 ],
					"numoutlets" : 1,
					"id" : "obj-11",
					"fontname" : "Arial",
					"outlettype" : [ "signal" ]
				}

			}
, 			{
				"box" : 				{
					"maxclass" : "newobj",
					"text" : "partconvolve~ 6144 4096 @offset 2048 @length 6144 @chan #1 ",
					"fontsize" : 12.0,
					"numinlets" : 1,
					"patching_rect" : [ 49.0, 87.0, 360.0, 20.0 ],
					"numoutlets" : 1,
					"id" : "obj-12",
					"fontname" : "Arial",
					"outlettype" : [ "signal" ]
				}

			}
 ],
		"lines" : [ 			{
				"patchline" : 				{
					"source" : [ "obj-2", 0 ],
					"destination" : [ "obj-3", 0 ],
					"hidden" : 0,
					"midpoints" : [  ]
				}

			}
, 			{
				"patchline" : 				{
					"source" : [ "obj-1", 0 ],
					"destination" : [ "obj-2", 0 ],
					"hidden" : 0,
					"color" : [ 1.0, 0.541176, 0.843137, 1.0 ],
					"midpoints" : [ 493.5, 49.0, 27.5, 49.0 ]
				}

			}
, 			{
				"patchline" : 				{
					"source" : [ "obj-8", 0 ],
					"destination" : [ "obj-2", 0 ],
					"hidden" : 0,
					"midpoints" : [ 455.5, 43.0, 27.5, 43.0 ]
				}

			}
, 			{
				"patchline" : 				{
					"source" : [ "obj-7", 0 ],
					"destination" : [ "obj-5", 1 ],
					"hidden" : 0,
					"midpoints" : [  ]
				}

			}
, 			{
				"patchline" : 				{
					"source" : [ "obj-6", 0 ],
					"destination" : [ "obj-5", 0 ],
					"hidden" : 0,
					"midpoints" : [  ]
				}

			}
, 			{
				"patchline" : 				{
					"source" : [ "obj-5", 0 ],
					"destination" : [ "obj-3", 1 ],
					"hidden" : 0,
					"midpoints" : [  ]
				}

			}
, 			{
				"patchline" : 				{
					"source" : [ "obj-3", 0 ],
					"destination" : [ "obj-4", 0 ],
					"hidden" : 0,
					"midpoints" : [  ]
				}

			}
, 			{
				"patchline" : 				{
					"source" : [ "obj-11", 0 ],
					"destination" : [ "obj-7", 1 ],
					"hidden" : 0,
					"midpoints" : [  ]
				}

			}
, 			{
				"patchline" : 				{
					"source" : [ "obj-1", 0 ],
					"destination" : [ "obj-11", 0 ],
					"hidden" : 0,
					"color" : [ 1.0, 0.541176, 0.843137, 1.0 ],
					"midpoints" : [ 493.5, 169.0, 141.5, 169.0 ]
				}

			}
, 			{
				"patchline" : 				{
					"source" : [ "obj-8", 0 ],
					"destination" : [ "obj-11", 0 ],
					"hidden" : 0,
					"midpoints" : [ 455.5, 165.0, 141.5, 165.0 ]
				}

			}
, 			{
				"patchline" : 				{
					"source" : [ "obj-9", 0 ],
					"destination" : [ "obj-7", 0 ],
					"hidden" : 0,
					"midpoints" : [  ]
				}

			}
, 			{
				"patchline" : 				{
					"source" : [ "obj-1", 0 ],
					"destination" : [ "obj-9", 0 ],
					"hidden" : 0,
					"color" : [ 1.0, 0.541176, 0.843137, 1.0 ],
					"midpoints" : [ 493.5, 141.0, 111.5, 141.0 ]
				}

			}
, 			{
				"patchline" : 				{
					"source" : [ "obj-8", 0 ],
					"destination" : [ "obj-9", 0 ],
					"hidden" : 0,
					"midpoints" : [ 455.5, 136.0, 111.5, 136.0 ]
				}

			}
, 			{
				"patchline" : 				{
					"source" : [ "obj-10", 0 ],
					"destination" : [ "obj-6", 1 ],
					"hidden" : 0,
					"midpoints" : [  ]
				}

			}
, 			{
				"patchline" : 				{
					"source" : [ "obj-1", 0 ],
					"destination" : [ "obj-10", 0 ],
					"hidden" : 0,
					"color" : [ 1.0, 0.541176, 0.843137, 1.0 ],
					"midpoints" : [ 493.5, 110.0, 88.5, 110.0 ]
				}

			}
, 			{
				"patchline" : 				{
					"source" : [ "obj-8", 0 ],
					"destination" : [ "obj-10", 0 ],
					"hidden" : 0,
					"midpoints" : [ 455.5, 106.0, 88.5, 106.0 ]
				}

			}
, 			{
				"patchline" : 				{
					"source" : [ "obj-12", 0 ],
					"destination" : [ "obj-6", 0 ],
					"hidden" : 0,
					"midpoints" : [  ]
				}

			}
, 			{
				"patchline" : 				{
					"source" : [ "obj-1", 0 ],
					"destination" : [ "obj-12", 0 ],
					"hidden" : 0,
					"color" : [ 1.0, 0.541176, 0.843137, 1.0 ],
					"midpoints" : [ 493.5, 82.0, 58.5, 82.0 ]
				}

			}
, 			{
				"patchline" : 				{
					"source" : [ "obj-8", 0 ],
					"destination" : [ "obj-12", 0 ],
					"hidden" : 0,
					"midpoints" : [ 455.5, 78.0, 58.5, 78.0 ]
				}

			}
 ]
	}

}
